solid OpenSCAD_Model
  facet normal 0 0 -1
    outer loop
      vertex -31.9419 1.30815 0
      vertex -29.25 4 0
      vertex -31.5408 0.707964 0
    endloop
  endfacet
  facet normal 0 0 -1
    outer loop
      vertex -29.25 4 0
      vertex -31.5408 27.292 0
      vertex -31.4 28 0
    endloop
  endfacet
  facet normal 0 0 -1
    outer loop
      vertex -32.542 1.70918 0
      vertex -29.25 4 0
      vertex -31.9419 1.30815 0
    endloop
  endfacet
  facet normal 0 0 -1
    outer loop
      vertex -29.25 4 0
      vertex -31.9419 26.6919 0
      vertex -31.5408 27.292 0
    endloop
  endfacet
  facet normal 0 0 -1
    outer loop
      vertex -33.25 1.85 0
      vertex -29.25 4 0
      vertex -32.542 1.70918 0
    endloop
  endfacet
  facet normal 0 0 -1
    outer loop
      vertex -29.25 4 0
      vertex -32.542 26.2908 0
      vertex -31.9419 26.6919 0
    endloop
  endfacet
  facet normal 0 0 -1
    outer loop
      vertex -33.958 1.70918 0
      vertex -29.25 4 0
      vertex -33.25 1.85 0
    endloop
  endfacet
  facet normal 0 0 -1
    outer loop
      vertex -29.25 4 0
      vertex -33.25 26.15 0
      vertex -32.542 26.2908 0
    endloop
  endfacet
  facet normal 0 0 -1
    outer loop
      vertex -33.958 26.2908 0
      vertex -29.25 4 0
      vertex -33.958 1.70918 0
    endloop
  endfacet
  facet normal 0 0 -1
    outer loop
      vertex -29.25 4 0
      vertex -33.958 26.2908 0
      vertex -33.25 26.15 0
    endloop
  endfacet
  facet normal 0 0 -1
    outer loop
      vertex -37.25 0 0
      vertex -33.958 1.70918 0
      vertex -34.5581 1.30815 0
    endloop
  endfacet
  facet normal -0 0 -1
    outer loop
      vertex -33.958 1.70918 0
      vertex -37.25 0 0
      vertex -33.958 26.2908 0
    endloop
  endfacet
  facet normal 0 0 -1
    outer loop
      vertex -37.25 0 0
      vertex -34.5581 1.30815 0
      vertex -34.9592 0.707964 0
    endloop
  endfacet
  facet normal 0 0 -1
    outer loop
      vertex -37.25 28 0
      vertex -33.958 26.2908 0
      vertex -37.25 0 0
    endloop
  endfacet
  facet normal 0 0 -1
    outer loop
      vertex -37.25 0 0
      vertex -34.9592 0.707964 0
      vertex -35.1 0 0
    endloop
  endfacet
  facet normal 0 0 -1
    outer loop
      vertex -33.958 26.2908 0
      vertex -37.25 28 0
      vertex -34.5581 26.6919 0
    endloop
  endfacet
  facet normal 0 0 -1
    outer loop
      vertex 33.958 1.70918 0
      vertex 37.25 0 0
      vertex 34.5581 1.30815 0
    endloop
  endfacet
  facet normal -0 0 -1
    outer loop
      vertex 37.25 28 0
      vertex 34.9592 27.292 0
      vertex 35.1 28 0
    endloop
  endfacet
  facet normal 0 0 -1
    outer loop
      vertex 37.25 0 0
      vertex 33.958 1.70918 0
      vertex 37.25 28 0
    endloop
  endfacet
  facet normal 0 0 -1
    outer loop
      vertex 37.25 28 0
      vertex 34.5581 26.6919 0
      vertex 34.9592 27.292 0
    endloop
  endfacet
  facet normal 0 0 -1
    outer loop
      vertex 33.958 26.2908 0
      vertex 37.25 28 0
      vertex 33.958 1.70918 0
    endloop
  endfacet
  facet normal 0 0 -1
    outer loop
      vertex 37.25 28 0
      vertex 33.958 26.2908 0
      vertex 34.5581 26.6919 0
    endloop
  endfacet
  facet normal 0 0 -1
    outer loop
      vertex 29.25 4 0
      vertex 33.958 1.70918 0
      vertex 33.25 1.85 0
    endloop
  endfacet
  facet normal 0 0 -1
    outer loop
      vertex 33.958 1.70918 0
      vertex 29.25 4 0
      vertex 33.958 26.2908 0
    endloop
  endfacet
  facet normal 0 0 -1
    outer loop
      vertex 29.25 4 0
      vertex 33.25 1.85 0
      vertex 32.542 1.70918 0
    endloop
  endfacet
  facet normal 0 0 -1
    outer loop
      vertex 33.958 26.2908 0
      vertex 29.25 4 0
      vertex 33.25 26.15 0
    endloop
  endfacet
  facet normal 0 0 -1
    outer loop
      vertex 29.25 4 0
      vertex 32.542 1.70918 0
      vertex 31.9419 1.30815 0
    endloop
  endfacet
  facet normal -0 0 -1
    outer loop
      vertex 33.25 26.15 0
      vertex 29.25 4 0
      vertex 32.542 26.2908 0
    endloop
  endfacet
  facet normal 0 0 -1
    outer loop
      vertex 29.25 4 0
      vertex 31.9419 1.30815 0
      vertex 31.5408 0.707964 0
    endloop
  endfacet
  facet normal -0 0 -1
    outer loop
      vertex 32.542 26.2908 0
      vertex 29.25 4 0
      vertex 31.9419 26.6919 0
    endloop
  endfacet
  facet normal 0 0 -1
    outer loop
      vertex 29.25 4 0
      vertex 31.5408 0.707964 0
      vertex 31.4 0 0
    endloop
  endfacet
  facet normal 0 0 -1
    outer loop
      vertex 29.25 28 0
      vertex 31.9419 26.6919 0
      vertex 29.25 4 0
    endloop
  endfacet
  facet normal 0 0 -1
    outer loop
      vertex 35.1 0 0
      vertex 37.25 0 0
      vertex 36.9455 -1.53073 0
    endloop
  endfacet
  facet normal 0 0 -1
    outer loop
      vertex 34.9592 0.707964 0
      vertex 37.25 0 0
      vertex 35.1 0 0
    endloop
  endfacet
  facet normal 0 0 -1
    outer loop
      vertex 34.9592 -0.707964 0
      vertex 36.9455 -1.53073 0
      vertex 36.0784 -2.82843 0
    endloop
  endfacet
  facet normal 0 0 -1
    outer loop
      vertex 34.5581 1.30815 0
      vertex 37.25 0 0
      vertex 34.9592 0.707964 0
    endloop
  endfacet
  facet normal 0 0 -1
    outer loop
      vertex 37.25 28 0
      vertex 35.1 28 0
      vertex 36.9455 29.5307 0
    endloop
  endfacet
  facet normal 0 0 -1
    outer loop
      vertex 36.9455 -1.53073 0
      vertex 34.9592 -0.707964 0
      vertex 35.1 0 0
    endloop
  endfacet
  facet normal 0 0 -1
    outer loop
      vertex 34.5581 -1.30815 0
      vertex 36.0784 -2.82843 0
      vertex 34.7807 -3.69552 0
    endloop
  endfacet
  facet normal 0 0 -1
    outer loop
      vertex 36.0784 -2.82843 0
      vertex 34.5581 -1.30815 0
      vertex 34.9592 -0.707964 0
    endloop
  endfacet
  facet normal 0 0 -1
    outer loop
      vertex 34.7807 -3.69552 0
      vertex 33.958 -1.70918 0
      vertex 34.5581 -1.30815 0
    endloop
  endfacet
  facet normal 0 0 -1
    outer loop
      vertex 33.25 -4 0
      vertex 33.958 -1.70918 0
      vertex 34.7807 -3.69552 0
    endloop
  endfacet
  facet normal 0 0 -1
    outer loop
      vertex 33.25 -4 0
      vertex 33.25 -1.85 0
      vertex 33.958 -1.70918 0
    endloop
  endfacet
  facet normal 0 0 -1
    outer loop
      vertex 33.25 -4 0
      vertex 32.542 -1.70918 0
      vertex 33.25 -1.85 0
    endloop
  endfacet
  facet normal 0 0 -1
    outer loop
      vertex 33.25 -4 0
      vertex 31.9419 -1.30815 0
      vertex 32.542 -1.70918 0
    endloop
  endfacet
  facet normal 0 0 -1
    outer loop
      vertex 20.0581 -1.30815 0
      vertex 31.9419 -1.30815 0
      vertex 33.25 -4 0
    endloop
  endfacet
  facet normal 0 0 -1
    outer loop
      vertex 31.9419 26.6919 0
      vertex 29.25 28 0
      vertex 31.5408 27.292 0
    endloop
  endfacet
  facet normal 0 -0 -1
    outer loop
      vertex 29.5545 29.5307 0
      vertex 31.4 28 0
      vertex 29.25 28 0
    endloop
  endfacet
  facet normal 0 0 -1
    outer loop
      vertex 31.5408 27.292 0
      vertex 29.25 28 0
      vertex 31.4 28 0
    endloop
  endfacet
  facet normal 0 0 -1
    outer loop
      vertex 20.6 0 0
      vertex 31.4 0 0
      vertex 31.5408 -0.707964 0
    endloop
  endfacet
  facet normal 0 0 -1
    outer loop
      vertex 31.4 0 0
      vertex 20.6 0 0
      vertex 29.25 4 0
    endloop
  endfacet
  facet normal 0 0 -1
    outer loop
      vertex 31.9419 -1.30815 0
      vertex 20.0581 -1.30815 0
      vertex 31.5408 -0.707964 0
    endloop
  endfacet
  facet normal 0 0 -1
    outer loop
      vertex 31.5408 -0.707964 0
      vertex 20.4592 -0.707964 0
      vertex 20.6 0 0
    endloop
  endfacet
  facet normal -0 0 -1
    outer loop
      vertex 31.5408 -0.707964 0
      vertex 20.0581 -1.30815 0
      vertex 20.4592 -0.707964 0
    endloop
  endfacet
  facet normal 0 0 -1
    outer loop
      vertex 33.25 -4 0
      vertex 19.458 -1.70918 0
      vertex 20.0581 -1.30815 0
    endloop
  endfacet
  facet normal 0 0 -1
    outer loop
      vertex 33.25 -4 0
      vertex 18.75 -1.85 0
      vertex 19.458 -1.70918 0
    endloop
  endfacet
  facet normal 0 0 -1
    outer loop
      vertex 17.0408 -0.707964 0
      vertex -16.9 0 0
      vertex 16.9 0 0
    endloop
  endfacet
  facet normal 0 0 -1
    outer loop
      vertex -17.0408 -0.707964 0
      vertex 17.0408 -0.707964 0
      vertex 17.4419 -1.30815 0
    endloop
  endfacet
  facet normal 0 0 -1
    outer loop
      vertex -17.4419 -1.30815 0
      vertex 17.4419 -1.30815 0
      vertex 18.042 -1.70918 0
    endloop
  endfacet
  facet normal 0 0 -1
    outer loop
      vertex -18.042 -1.70918 0
      vertex 18.042 -1.70918 0
      vertex 18.75 -1.85 0
    endloop
  endfacet
  facet normal 0 0 -1
    outer loop
      vertex -18.75 -1.85 0
      vertex 18.75 -1.85 0
      vertex 33.25 -4 0
    endloop
  endfacet
  facet normal 0 0 -1
    outer loop
      vertex 17.0408 -0.707964 0
      vertex -17.0408 -0.707964 0
      vertex -16.9 0 0
    endloop
  endfacet
  facet normal 0 0 -1
    outer loop
      vertex 17.4419 -1.30815 0
      vertex -17.4419 -1.30815 0
      vertex -17.0408 -0.707964 0
    endloop
  endfacet
  facet normal 0 0 -1
    outer loop
      vertex 18.042 -1.70918 0
      vertex -18.042 -1.70918 0
      vertex -17.4419 -1.30815 0
    endloop
  endfacet
  facet normal 0 0 -1
    outer loop
      vertex 18.75 -1.85 0
      vertex -18.75 -1.85 0
      vertex -18.042 -1.70918 0
    endloop
  endfacet
  facet normal 0 0 -1
    outer loop
      vertex -31.4 0 0
      vertex -20.6 0 0
      vertex -20.4592 -0.707964 0
    endloop
  endfacet
  facet normal 0 0 -1
    outer loop
      vertex -31.5408 -0.707964 0
      vertex -20.4592 -0.707964 0
      vertex -20.0581 -1.30815 0
    endloop
  endfacet
  facet normal 0 0 -1
    outer loop
      vertex -33.25 -4 0
      vertex -20.0581 -1.30815 0
      vertex -19.458 -1.70918 0
    endloop
  endfacet
  facet normal 0 0 -1
    outer loop
      vertex -31.4 28 0
      vertex -29.25 28 0
      vertex -29.25 4 0
    endloop
  endfacet
  facet normal 0 0 -1
    outer loop
      vertex -29.25 28 0
      vertex -31.4 28 0
      vertex -29.5545 29.5307 0
    endloop
  endfacet
  facet normal 0 0 -1
    outer loop
      vertex -31.5408 0.707964 0
      vertex -29.25 4 0
      vertex -31.4 0 0
    endloop
  endfacet
  facet normal 0 0 -1
    outer loop
      vertex -20.6 0 0
      vertex -31.4 0 0
      vertex -29.25 4 0
    endloop
  endfacet
  facet normal 0 0 -1
    outer loop
      vertex -33.25 -4 0
      vertex -19.458 -1.70918 0
      vertex -18.75 -1.85 0
    endloop
  endfacet
  facet normal 0 0 -1
    outer loop
      vertex -20.4592 -0.707964 0
      vertex -31.5408 -0.707964 0
      vertex -31.4 0 0
    endloop
  endfacet
  facet normal 0 0 -1
    outer loop
      vertex -20.0581 -1.30815 0
      vertex -31.9419 -1.30815 0
      vertex -31.5408 -0.707964 0
    endloop
  endfacet
  facet normal 0 0 -1
    outer loop
      vertex -33.25 -4 0
      vertex -18.75 -1.85 0
      vertex 33.25 -4 0
    endloop
  endfacet
  facet normal -0 0 -1
    outer loop
      vertex -20.0581 -1.30815 0
      vertex -33.25 -4 0
      vertex -31.9419 -1.30815 0
    endloop
  endfacet
  facet normal 0 0 -1
    outer loop
      vertex -31.9419 -1.30815 0
      vertex -33.25 -4 0
      vertex -32.542 -1.70918 0
    endloop
  endfacet
  facet normal 0 0 -1
    outer loop
      vertex -33.25 -4 0
      vertex -33.25 -1.85 0
      vertex -32.542 -1.70918 0
    endloop
  endfacet
  facet normal 0 0 -1
    outer loop
      vertex -33.25 -4 0
      vertex -33.958 -1.70918 0
      vertex -33.25 -1.85 0
    endloop
  endfacet
  facet normal 0 0 -1
    outer loop
      vertex -34.7807 -3.69552 0
      vertex -33.958 -1.70918 0
      vertex -33.25 -4 0
    endloop
  endfacet
  facet normal -0 0 -1
    outer loop
      vertex -33.958 -1.70918 0
      vertex -34.7807 -3.69552 0
      vertex -34.5581 -1.30815 0
    endloop
  endfacet
  facet normal 0 0 -1
    outer loop
      vertex -36.0784 -2.82843 0
      vertex -34.5581 -1.30815 0
      vertex -34.7807 -3.69552 0
    endloop
  endfacet
  facet normal -0 0 -1
    outer loop
      vertex -34.5581 -1.30815 0
      vertex -36.0784 -2.82843 0
      vertex -34.9592 -0.707964 0
    endloop
  endfacet
  facet normal -0 0 -1
    outer loop
      vertex -34.9592 -0.707964 0
      vertex -36.9455 -1.53073 0
      vertex -35.1 0 0
    endloop
  endfacet
  facet normal 0 0 -1
    outer loop
      vertex -36.9455 -1.53073 0
      vertex -34.9592 -0.707964 0
      vertex -36.0784 -2.82843 0
    endloop
  endfacet
  facet normal 0 0 -1
    outer loop
      vertex 34.9592 28.708 0
      vertex 36.9455 29.5307 0
      vertex 35.1 28 0
    endloop
  endfacet
  facet normal -0 0 -1
    outer loop
      vertex 36.9455 29.5307 0
      vertex 34.9592 28.708 0
      vertex 36.0784 30.8284 0
    endloop
  endfacet
  facet normal 0 0 -1
    outer loop
      vertex 34.5581 29.3081 0
      vertex 36.0784 30.8284 0
      vertex 34.9592 28.708 0
    endloop
  endfacet
  facet normal -0 0 -1
    outer loop
      vertex 36.0784 30.8284 0
      vertex 34.5581 29.3081 0
      vertex 34.7807 31.6955 0
    endloop
  endfacet
  facet normal 0 0 -1
    outer loop
      vertex 33.958 29.7092 0
      vertex 34.7807 31.6955 0
      vertex 34.5581 29.3081 0
    endloop
  endfacet
  facet normal 0 0 -1
    outer loop
      vertex 33.25 29.85 0
      vertex 34.7807 31.6955 0
      vertex 33.958 29.7092 0
    endloop
  endfacet
  facet normal 0 0 -1
    outer loop
      vertex 33.25 29.85 0
      vertex 33.25 32 0
      vertex 34.7807 31.6955 0
    endloop
  endfacet
  facet normal 0 0 -1
    outer loop
      vertex 32.542 29.7092 0
      vertex 33.25 32 0
      vertex 33.25 29.85 0
    endloop
  endfacet
  facet normal 0 0 -1
    outer loop
      vertex 31.7193 31.6955 0
      vertex 32.542 29.7092 0
      vertex 31.9419 29.3081 0
    endloop
  endfacet
  facet normal 0 0 -1
    outer loop
      vertex 32.542 29.7092 0
      vertex 31.7193 31.6955 0
      vertex 33.25 32 0
    endloop
  endfacet
  facet normal 0 0 -1
    outer loop
      vertex 30.4216 30.8284 0
      vertex 31.9419 29.3081 0
      vertex 31.5408 28.708 0
    endloop
  endfacet
  facet normal 0 0 -1
    outer loop
      vertex 30.4216 30.8284 0
      vertex 31.5408 28.708 0
      vertex 31.4 28 0
    endloop
  endfacet
  facet normal 0 0 -1
    outer loop
      vertex 31.9419 29.3081 0
      vertex 30.4216 30.8284 0
      vertex 31.7193 31.6955 0
    endloop
  endfacet
  facet normal 0 0 -1
    outer loop
      vertex 31.4 28 0
      vertex 29.5545 29.5307 0
      vertex 30.4216 30.8284 0
    endloop
  endfacet
  facet normal 0 0 -1
    outer loop
      vertex 20.4592 0.707964 0
      vertex 29.25 4 0
      vertex 20.6 0 0
    endloop
  endfacet
  facet normal 0 0 -1
    outer loop
      vertex 20.0581 1.30815 0
      vertex 29.25 4 0
      vertex 20.4592 0.707964 0
    endloop
  endfacet
  facet normal 0 0 -1
    outer loop
      vertex 19.458 1.70918 0
      vertex 29.25 4 0
      vertex 20.0581 1.30815 0
    endloop
  endfacet
  facet normal 0 0 -1
    outer loop
      vertex 18.75 1.85 0
      vertex 29.25 4 0
      vertex 19.458 1.70918 0
    endloop
  endfacet
  facet normal 0 0 -1
    outer loop
      vertex -18.75 1.85 0
      vertex 18.75 1.85 0
      vertex 18.042 1.70918 0
    endloop
  endfacet
  facet normal 0 0 -1
    outer loop
      vertex -16.9 0 0
      vertex 17.0408 0.707964 0
      vertex 16.9 0 0
    endloop
  endfacet
  facet normal 0 0 -1
    outer loop
      vertex -17.0408 0.707964 0
      vertex 17.0408 0.707964 0
      vertex -16.9 0 0
    endloop
  endfacet
  facet normal 0 0 -1
    outer loop
      vertex 17.0408 0.707964 0
      vertex -17.0408 0.707964 0
      vertex 17.4419 1.30815 0
    endloop
  endfacet
  facet normal 0 0 -1
    outer loop
      vertex -17.4419 1.30815 0
      vertex 17.4419 1.30815 0
      vertex -17.0408 0.707964 0
    endloop
  endfacet
  facet normal 0 0 -1
    outer loop
      vertex 17.4419 1.30815 0
      vertex -17.4419 1.30815 0
      vertex 18.042 1.70918 0
    endloop
  endfacet
  facet normal 0 0 -1
    outer loop
      vertex -18.042 1.70918 0
      vertex 18.042 1.70918 0
      vertex -17.4419 1.30815 0
    endloop
  endfacet
  facet normal 0 0 -1
    outer loop
      vertex -18.75 1.85 0
      vertex 18.042 1.70918 0
      vertex -18.042 1.70918 0
    endloop
  endfacet
  facet normal 0 0 -1
    outer loop
      vertex 18.75 1.85 0
      vertex -18.75 1.85 0
      vertex 29.25 4 0
    endloop
  endfacet
  facet normal 0 0 -1
    outer loop
      vertex -18.75 1.85 0
      vertex -29.25 4 0
      vertex 29.25 4 0
    endloop
  endfacet
  facet normal 0 0 -1
    outer loop
      vertex -19.458 1.70918 0
      vertex -29.25 4 0
      vertex -18.75 1.85 0
    endloop
  endfacet
  facet normal 0 0 -1
    outer loop
      vertex -20.0581 1.30815 0
      vertex -29.25 4 0
      vertex -19.458 1.70918 0
    endloop
  endfacet
  facet normal 0 0 -1
    outer loop
      vertex -20.4592 0.707964 0
      vertex -29.25 4 0
      vertex -20.0581 1.30815 0
    endloop
  endfacet
  facet normal 0 0 -1
    outer loop
      vertex -29.25 4 0
      vertex -20.4592 0.707964 0
      vertex -20.6 0 0
    endloop
  endfacet
  facet normal 0 0 -1
    outer loop
      vertex -31.5408 28.708 0
      vertex -29.5545 29.5307 0
      vertex -31.4 28 0
    endloop
  endfacet
  facet normal -0 0 -1
    outer loop
      vertex -29.5545 29.5307 0
      vertex -31.5408 28.708 0
      vertex -30.4216 30.8284 0
    endloop
  endfacet
  facet normal 0 0 -1
    outer loop
      vertex -31.9419 29.3081 0
      vertex -30.4216 30.8284 0
      vertex -31.5408 28.708 0
    endloop
  endfacet
  facet normal -0 0 -1
    outer loop
      vertex -30.4216 30.8284 0
      vertex -31.9419 29.3081 0
      vertex -31.7193 31.6955 0
    endloop
  endfacet
  facet normal 0 0 -1
    outer loop
      vertex -32.542 29.7092 0
      vertex -31.7193 31.6955 0
      vertex -31.9419 29.3081 0
    endloop
  endfacet
  facet normal 0 0 -1
    outer loop
      vertex -33.25 29.85 0
      vertex -31.7193 31.6955 0
      vertex -32.542 29.7092 0
    endloop
  endfacet
  facet normal 0 0 -1
    outer loop
      vertex -33.25 29.85 0
      vertex -33.25 32 0
      vertex -31.7193 31.6955 0
    endloop
  endfacet
  facet normal 0 0 -1
    outer loop
      vertex -33.958 29.7092 0
      vertex -33.25 32 0
      vertex -33.25 29.85 0
    endloop
  endfacet
  facet normal 0 0 -1
    outer loop
      vertex -34.7807 31.6955 0
      vertex -33.958 29.7092 0
      vertex -34.5581 29.3081 0
    endloop
  endfacet
  facet normal 0 0 -1
    outer loop
      vertex -33.958 29.7092 0
      vertex -34.7807 31.6955 0
      vertex -33.25 32 0
    endloop
  endfacet
  facet normal 0 0 -1
    outer loop
      vertex -36.0784 30.8284 0
      vertex -34.5581 29.3081 0
      vertex -34.9592 28.708 0
    endloop
  endfacet
  facet normal 0 0 -1
    outer loop
      vertex -36.9455 29.5307 0
      vertex -34.9592 28.708 0
      vertex -35.1 28 0
    endloop
  endfacet
  facet normal 0 0 -1
    outer loop
      vertex -34.5581 29.3081 0
      vertex -36.0784 30.8284 0
      vertex -34.7807 31.6955 0
    endloop
  endfacet
  facet normal 0 0 -1
    outer loop
      vertex -34.5581 26.6919 0
      vertex -37.25 28 0
      vertex -34.9592 27.292 0
    endloop
  endfacet
  facet normal -0 0 -1
    outer loop
      vertex -35.1 0 0
      vertex -36.9455 -1.53073 0
      vertex -37.25 0 0
    endloop
  endfacet
  facet normal 0 0 -1
    outer loop
      vertex -34.9592 27.292 0
      vertex -37.25 28 0
      vertex -35.1 28 0
    endloop
  endfacet
  facet normal 0 -0 -1
    outer loop
      vertex -36.9455 29.5307 0
      vertex -35.1 28 0
      vertex -37.25 28 0
    endloop
  endfacet
  facet normal 0 0 -1
    outer loop
      vertex -34.9592 28.708 0
      vertex -36.9455 29.5307 0
      vertex -36.0784 30.8284 0
    endloop
  endfacet
  facet normal 0 0 1
    outer loop
      vertex -31.4 28 3
      vertex -29.25 28 3
      vertex -29.5545 29.5307 3
    endloop
  endfacet
  facet normal 0 0 1
    outer loop
      vertex -29.25 28 3
      vertex -31.9419 26.6919 3
      vertex -29.25 4 3
    endloop
  endfacet
  facet normal 0 0 1
    outer loop
      vertex -29.25 4 3
      vertex -31.5408 0.707964 3
      vertex -31.4 0 3
    endloop
  endfacet
  facet normal -0 0 1
    outer loop
      vertex -32.542 26.2908 3
      vertex -29.25 4 3
      vertex -31.9419 26.6919 3
    endloop
  endfacet
  facet normal 0 0 1
    outer loop
      vertex -29.25 4 3
      vertex -31.9419 1.30815 3
      vertex -31.5408 0.707964 3
    endloop
  endfacet
  facet normal -0 0 1
    outer loop
      vertex -33.25 26.15 3
      vertex -29.25 4 3
      vertex -32.542 26.2908 3
    endloop
  endfacet
  facet normal 0 0 1
    outer loop
      vertex -29.25 4 3
      vertex -32.542 1.70918 3
      vertex -31.9419 1.30815 3
    endloop
  endfacet
  facet normal 0 0 1
    outer loop
      vertex -33.958 26.2908 3
      vertex -29.25 4 3
      vertex -33.25 26.15 3
    endloop
  endfacet
  facet normal 0 0 1
    outer loop
      vertex -29.25 4 3
      vertex -33.25 1.85 3
      vertex -32.542 1.70918 3
    endloop
  endfacet
  facet normal 0 0 1
    outer loop
      vertex -33.958 1.70918 3
      vertex -29.25 4 3
      vertex -33.958 26.2908 3
    endloop
  endfacet
  facet normal 0 0 1
    outer loop
      vertex -29.25 4 3
      vertex -33.958 1.70918 3
      vertex -33.25 1.85 3
    endloop
  endfacet
  facet normal 0 0 1
    outer loop
      vertex -37.25 28 3
      vertex -33.958 26.2908 3
      vertex -34.5581 26.6919 3
    endloop
  endfacet
  facet normal 0 0 1
    outer loop
      vertex -33.958 26.2908 3
      vertex -37.25 28 3
      vertex -33.958 1.70918 3
    endloop
  endfacet
  facet normal 0 0 1
    outer loop
      vertex -37.25 28 3
      vertex -34.5581 26.6919 3
      vertex -34.9592 27.292 3
    endloop
  endfacet
  facet normal 0 0 1
    outer loop
      vertex -37.25 0 3
      vertex -33.958 1.70918 3
      vertex -37.25 28 3
    endloop
  endfacet
  facet normal -0 0 1
    outer loop
      vertex -37.25 28 3
      vertex -34.9592 27.292 3
      vertex -35.1 28 3
    endloop
  endfacet
  facet normal 0 0 1
    outer loop
      vertex -33.958 1.70918 3
      vertex -37.25 0 3
      vertex -34.5581 1.30815 3
    endloop
  endfacet
  facet normal 0 0 1
    outer loop
      vertex -29.5545 29.5307 3
      vertex -31.5408 28.708 3
      vertex -31.4 28 3
    endloop
  endfacet
  facet normal 0 0 1
    outer loop
      vertex -31.9419 29.3081 3
      vertex -30.4216 30.8284 3
      vertex -31.7193 31.6955 3
    endloop
  endfacet
  facet normal 0 0 1
    outer loop
      vertex -30.4216 30.8284 3
      vertex -31.9419 29.3081 3
      vertex -31.5408 28.708 3
    endloop
  endfacet
  facet normal 0 0 1
    outer loop
      vertex -31.7193 31.6955 3
      vertex -32.542 29.7092 3
      vertex -31.9419 29.3081 3
    endloop
  endfacet
  facet normal 0 0 1
    outer loop
      vertex -33.25 32 3
      vertex -32.542 29.7092 3
      vertex -31.7193 31.6955 3
    endloop
  endfacet
  facet normal 0 0 1
    outer loop
      vertex -33.25 32 3
      vertex -33.25 29.85 3
      vertex -32.542 29.7092 3
    endloop
  endfacet
  facet normal 0 0 1
    outer loop
      vertex -33.25 32 3
      vertex -33.958 29.7092 3
      vertex -33.25 29.85 3
    endloop
  endfacet
  facet normal -0 0 1
    outer loop
      vertex -34.7807 31.6955 3
      vertex -33.958 29.7092 3
      vertex -33.25 32 3
    endloop
  endfacet
  facet normal 0 0 1
    outer loop
      vertex -33.958 29.7092 3
      vertex -34.7807 31.6955 3
      vertex -34.5581 29.3081 3
    endloop
  endfacet
  facet normal -0 0 1
    outer loop
      vertex -36.0784 30.8284 3
      vertex -34.5581 29.3081 3
      vertex -34.7807 31.6955 3
    endloop
  endfacet
  facet normal 0 0 1
    outer loop
      vertex -34.5581 29.3081 3
      vertex -36.0784 30.8284 3
      vertex -34.9592 28.708 3
    endloop
  endfacet
  facet normal 0 0 1
    outer loop
      vertex -34.9592 28.708 3
      vertex -36.9455 29.5307 3
      vertex -35.1 28 3
    endloop
  endfacet
  facet normal -0 0 1
    outer loop
      vertex -36.9455 29.5307 3
      vertex -34.9592 28.708 3
      vertex -36.0784 30.8284 3
    endloop
  endfacet
  facet normal 0 0 1
    outer loop
      vertex 29.25 4 3
      vertex 20.4592 0.707964 3
      vertex 20.6 0 3
    endloop
  endfacet
  facet normal 0 0 1
    outer loop
      vertex 29.25 4 3
      vertex 20.0581 1.30815 3
      vertex 20.4592 0.707964 3
    endloop
  endfacet
  facet normal 0 0 1
    outer loop
      vertex 29.25 4 3
      vertex 19.458 1.70918 3
      vertex 20.0581 1.30815 3
    endloop
  endfacet
  facet normal 0 0 1
    outer loop
      vertex 29.25 4 3
      vertex 18.75 1.85 3
      vertex 19.458 1.70918 3
    endloop
  endfacet
  facet normal 0 0 1
    outer loop
      vertex -18.75 1.85 3
      vertex 18.75 1.85 3
      vertex 29.25 4 3
    endloop
  endfacet
  facet normal 0 0 1
    outer loop
      vertex 17.0408 0.707964 3
      vertex -16.9 0 3
      vertex 16.9 0 3
    endloop
  endfacet
  facet normal 0 0 1
    outer loop
      vertex -17.0408 0.707964 3
      vertex 17.0408 0.707964 3
      vertex 17.4419 1.30815 3
    endloop
  endfacet
  facet normal 0 0 1
    outer loop
      vertex -17.4419 1.30815 3
      vertex 17.4419 1.30815 3
      vertex 18.042 1.70918 3
    endloop
  endfacet
  facet normal 0 0 1
    outer loop
      vertex 18.75 1.85 3
      vertex -18.75 1.85 3
      vertex 18.042 1.70918 3
    endloop
  endfacet
  facet normal 0 0 1
    outer loop
      vertex 17.0408 0.707964 3
      vertex -17.0408 0.707964 3
      vertex -16.9 0 3
    endloop
  endfacet
  facet normal 0 0 1
    outer loop
      vertex 17.4419 1.30815 3
      vertex -17.4419 1.30815 3
      vertex -17.0408 0.707964 3
    endloop
  endfacet
  facet normal 0 0 1
    outer loop
      vertex 18.042 1.70918 3
      vertex -18.042 1.70918 3
      vertex -17.4419 1.30815 3
    endloop
  endfacet
  facet normal 0 0 1
    outer loop
      vertex 18.042 1.70918 3
      vertex -18.75 1.85 3
      vertex -18.042 1.70918 3
    endloop
  endfacet
  facet normal 0 0 1
    outer loop
      vertex -20.4592 0.707964 3
      vertex -29.25 4 3
      vertex -20.6 0 3
    endloop
  endfacet
  facet normal 0 0 1
    outer loop
      vertex -20.0581 1.30815 3
      vertex -29.25 4 3
      vertex -20.4592 0.707964 3
    endloop
  endfacet
  facet normal 0 0 1
    outer loop
      vertex -19.458 1.70918 3
      vertex -29.25 4 3
      vertex -20.0581 1.30815 3
    endloop
  endfacet
  facet normal 0 0 1
    outer loop
      vertex -18.75 1.85 3
      vertex -29.25 4 3
      vertex -19.458 1.70918 3
    endloop
  endfacet
  facet normal -0 0 1
    outer loop
      vertex -29.25 4 3
      vertex -18.75 1.85 3
      vertex 29.25 4 3
    endloop
  endfacet
  facet normal 0 0 1
    outer loop
      vertex 33.958 26.2908 3
      vertex 37.25 28 3
      vertex 34.5581 26.6919 3
    endloop
  endfacet
  facet normal 0 0 1
    outer loop
      vertex 37.25 0 3
      vertex 34.9592 0.707964 3
      vertex 35.1 0 3
    endloop
  endfacet
  facet normal 0 0 1
    outer loop
      vertex 37.25 28 3
      vertex 33.958 26.2908 3
      vertex 37.25 0 3
    endloop
  endfacet
  facet normal 0 0 1
    outer loop
      vertex 37.25 0 3
      vertex 34.5581 1.30815 3
      vertex 34.9592 0.707964 3
    endloop
  endfacet
  facet normal -0 0 1
    outer loop
      vertex 33.958 1.70918 3
      vertex 37.25 0 3
      vertex 33.958 26.2908 3
    endloop
  endfacet
  facet normal 0 0 1
    outer loop
      vertex 37.25 0 3
      vertex 33.958 1.70918 3
      vertex 34.5581 1.30815 3
    endloop
  endfacet
  facet normal 0 0 1
    outer loop
      vertex 29.25 4 3
      vertex 33.958 26.2908 3
      vertex 33.25 26.15 3
    endloop
  endfacet
  facet normal 0 0 1
    outer loop
      vertex 33.958 26.2908 3
      vertex 29.25 4 3
      vertex 33.958 1.70918 3
    endloop
  endfacet
  facet normal 0 0 1
    outer loop
      vertex 29.25 4 3
      vertex 33.25 26.15 3
      vertex 32.542 26.2908 3
    endloop
  endfacet
  facet normal 0 0 1
    outer loop
      vertex 33.958 1.70918 3
      vertex 29.25 4 3
      vertex 33.25 1.85 3
    endloop
  endfacet
  facet normal 0 0 1
    outer loop
      vertex 29.25 4 3
      vertex 32.542 26.2908 3
      vertex 31.9419 26.6919 3
    endloop
  endfacet
  facet normal 0 0 1
    outer loop
      vertex 33.25 1.85 3
      vertex 29.25 4 3
      vertex 32.542 1.70918 3
    endloop
  endfacet
  facet normal 0 0 1
    outer loop
      vertex 29.25 28 3
      vertex 31.9419 26.6919 3
      vertex 31.5408 27.292 3
    endloop
  endfacet
  facet normal 0 0 1
    outer loop
      vertex 32.542 1.70918 3
      vertex 29.25 4 3
      vertex 31.9419 1.30815 3
    endloop
  endfacet
  facet normal -0 0 1
    outer loop
      vertex 29.25 28 3
      vertex 31.5408 27.292 3
      vertex 31.4 28 3
    endloop
  endfacet
  facet normal 0 0 1
    outer loop
      vertex 31.9419 1.30815 3
      vertex 29.25 4 3
      vertex 31.5408 0.707964 3
    endloop
  endfacet
  facet normal 0 0 1
    outer loop
      vertex 35.1 28 3
      vertex 37.25 28 3
      vertex 36.9455 29.5307 3
    endloop
  endfacet
  facet normal 0 0 1
    outer loop
      vertex 34.9592 27.292 3
      vertex 37.25 28 3
      vertex 35.1 28 3
    endloop
  endfacet
  facet normal 0 0 1
    outer loop
      vertex 34.9592 28.708 3
      vertex 36.9455 29.5307 3
      vertex 36.0784 30.8284 3
    endloop
  endfacet
  facet normal 0 0 1
    outer loop
      vertex 34.5581 26.6919 3
      vertex 37.25 28 3
      vertex 34.9592 27.292 3
    endloop
  endfacet
  facet normal 0 0 1
    outer loop
      vertex 37.25 0 3
      vertex 35.1 0 3
      vertex 36.9455 -1.53073 3
    endloop
  endfacet
  facet normal 0 0 1
    outer loop
      vertex 36.9455 29.5307 3
      vertex 34.9592 28.708 3
      vertex 35.1 28 3
    endloop
  endfacet
  facet normal 0 0 1
    outer loop
      vertex 34.5581 29.3081 3
      vertex 36.0784 30.8284 3
      vertex 34.7807 31.6955 3
    endloop
  endfacet
  facet normal 0 0 1
    outer loop
      vertex 36.0784 30.8284 3
      vertex 34.5581 29.3081 3
      vertex 34.9592 28.708 3
    endloop
  endfacet
  facet normal 0 0 1
    outer loop
      vertex 34.7807 31.6955 3
      vertex 33.958 29.7092 3
      vertex 34.5581 29.3081 3
    endloop
  endfacet
  facet normal 0 0 1
    outer loop
      vertex 33.25 32 3
      vertex 33.958 29.7092 3
      vertex 34.7807 31.6955 3
    endloop
  endfacet
  facet normal 0 0 1
    outer loop
      vertex 33.25 32 3
      vertex 33.25 29.85 3
      vertex 33.958 29.7092 3
    endloop
  endfacet
  facet normal 0 0 1
    outer loop
      vertex 33.25 32 3
      vertex 32.542 29.7092 3
      vertex 33.25 29.85 3
    endloop
  endfacet
  facet normal -0 0 1
    outer loop
      vertex 31.7193 31.6955 3
      vertex 32.542 29.7092 3
      vertex 33.25 32 3
    endloop
  endfacet
  facet normal 0 0 1
    outer loop
      vertex 32.542 29.7092 3
      vertex 31.7193 31.6955 3
      vertex 31.9419 29.3081 3
    endloop
  endfacet
  facet normal -0 0 1
    outer loop
      vertex 30.4216 30.8284 3
      vertex 31.9419 29.3081 3
      vertex 31.7193 31.6955 3
    endloop
  endfacet
  facet normal 0 0 1
    outer loop
      vertex 31.9419 29.3081 3
      vertex 30.4216 30.8284 3
      vertex 31.5408 28.708 3
    endloop
  endfacet
  facet normal 0 0 1
    outer loop
      vertex 31.5408 28.708 3
      vertex 29.5545 29.5307 3
      vertex 31.4 28 3
    endloop
  endfacet
  facet normal -0 0 1
    outer loop
      vertex 29.5545 29.5307 3
      vertex 31.5408 28.708 3
      vertex 30.4216 30.8284 3
    endloop
  endfacet
  facet normal -0 0 1
    outer loop
      vertex 34.9592 -0.707964 3
      vertex 36.9455 -1.53073 3
      vertex 35.1 0 3
    endloop
  endfacet
  facet normal 0 0 1
    outer loop
      vertex 36.9455 -1.53073 3
      vertex 34.9592 -0.707964 3
      vertex 36.0784 -2.82843 3
    endloop
  endfacet
  facet normal -0 0 1
    outer loop
      vertex 34.5581 -1.30815 3
      vertex 36.0784 -2.82843 3
      vertex 34.9592 -0.707964 3
    endloop
  endfacet
  facet normal 0 0 1
    outer loop
      vertex 36.0784 -2.82843 3
      vertex 34.5581 -1.30815 3
      vertex 34.7807 -3.69552 3
    endloop
  endfacet
  facet normal -0 0 1
    outer loop
      vertex 33.958 -1.70918 3
      vertex 34.7807 -3.69552 3
      vertex 34.5581 -1.30815 3
    endloop
  endfacet
  facet normal -0 0 1
    outer loop
      vertex 33.25 -1.85 3
      vertex 34.7807 -3.69552 3
      vertex 33.958 -1.70918 3
    endloop
  endfacet
  facet normal 0 0 1
    outer loop
      vertex 33.25 -1.85 3
      vertex 33.25 -4 3
      vertex 34.7807 -3.69552 3
    endloop
  endfacet
  facet normal 0 0 1
    outer loop
      vertex 32.542 -1.70918 3
      vertex 33.25 -4 3
      vertex 33.25 -1.85 3
    endloop
  endfacet
  facet normal 0 0 1
    outer loop
      vertex 31.9419 -1.30815 3
      vertex 33.25 -4 3
      vertex 32.542 -1.70918 3
    endloop
  endfacet
  facet normal 0 0 1
    outer loop
      vertex 20.0581 -1.30815 3
      vertex 31.9419 -1.30815 3
      vertex 31.5408 -0.707964 3
    endloop
  endfacet
  facet normal 0 0 1
    outer loop
      vertex 31.4 28 3
      vertex 29.5545 29.5307 3
      vertex 29.25 28 3
    endloop
  endfacet
  facet normal 0 0 1
    outer loop
      vertex 31.9419 26.6919 3
      vertex 29.25 28 3
      vertex 29.25 4 3
    endloop
  endfacet
  facet normal 0 0 1
    outer loop
      vertex 31.5408 0.707964 3
      vertex 29.25 4 3
      vertex 31.4 0 3
    endloop
  endfacet
  facet normal 0 0 1
    outer loop
      vertex 20.6 0 3
      vertex 31.4 0 3
      vertex 29.25 4 3
    endloop
  endfacet
  facet normal 0 0 1
    outer loop
      vertex 31.4 0 3
      vertex 20.6 0 3
      vertex 31.5408 -0.707964 3
    endloop
  endfacet
  facet normal 0 0 1
    outer loop
      vertex 20.4592 -0.707964 3
      vertex 31.5408 -0.707964 3
      vertex 20.6 0 3
    endloop
  endfacet
  facet normal 0 0 1
    outer loop
      vertex 20.0581 -1.30815 3
      vertex 31.5408 -0.707964 3
      vertex 20.4592 -0.707964 3
    endloop
  endfacet
  facet normal 0 0 1
    outer loop
      vertex 31.9419 -1.30815 3
      vertex 20.0581 -1.30815 3
      vertex 33.25 -4 3
    endloop
  endfacet
  facet normal -0 0 1
    outer loop
      vertex 19.458 -1.70918 3
      vertex 33.25 -4 3
      vertex 20.0581 -1.30815 3
    endloop
  endfacet
  facet normal -0 0 1
    outer loop
      vertex 18.75 -1.85 3
      vertex 33.25 -4 3
      vertex 19.458 -1.70918 3
    endloop
  endfacet
  facet normal -0 0 1
    outer loop
      vertex -16.9 0 3
      vertex 17.0408 -0.707964 3
      vertex 16.9 0 3
    endloop
  endfacet
  facet normal 0 0 1
    outer loop
      vertex -17.0408 -0.707964 3
      vertex 17.0408 -0.707964 3
      vertex -16.9 0 3
    endloop
  endfacet
  facet normal 0 0 1
    outer loop
      vertex 17.0408 -0.707964 3
      vertex -17.0408 -0.707964 3
      vertex 17.4419 -1.30815 3
    endloop
  endfacet
  facet normal 0 0 1
    outer loop
      vertex -17.4419 -1.30815 3
      vertex 17.4419 -1.30815 3
      vertex -17.0408 -0.707964 3
    endloop
  endfacet
  facet normal 0 0 1
    outer loop
      vertex 17.4419 -1.30815 3
      vertex -17.4419 -1.30815 3
      vertex 18.042 -1.70918 3
    endloop
  endfacet
  facet normal 0 0 1
    outer loop
      vertex -18.042 -1.70918 3
      vertex 18.042 -1.70918 3
      vertex -17.4419 -1.30815 3
    endloop
  endfacet
  facet normal 0 0 1
    outer loop
      vertex 18.042 -1.70918 3
      vertex -18.042 -1.70918 3
      vertex 18.75 -1.85 3
    endloop
  endfacet
  facet normal 0 0 1
    outer loop
      vertex -18.75 -1.85 3
      vertex 18.75 -1.85 3
      vertex -18.042 -1.70918 3
    endloop
  endfacet
  facet normal 0 0 1
    outer loop
      vertex 18.75 -1.85 3
      vertex -18.75 -1.85 3
      vertex 33.25 -4 3
    endloop
  endfacet
  facet normal 0 0 1
    outer loop
      vertex -31.4 0 3
      vertex -20.6 0 3
      vertex -29.25 4 3
    endloop
  endfacet
  facet normal 0 0 1
    outer loop
      vertex -20.6 0 3
      vertex -31.4 0 3
      vertex -20.4592 -0.707964 3
    endloop
  endfacet
  facet normal 0 0 1
    outer loop
      vertex -31.5408 -0.707964 3
      vertex -20.4592 -0.707964 3
      vertex -31.4 0 3
    endloop
  endfacet
  facet normal 0 0 1
    outer loop
      vertex -31.5408 28.708 3
      vertex -29.5545 29.5307 3
      vertex -30.4216 30.8284 3
    endloop
  endfacet
  facet normal 0 0 1
    outer loop
      vertex -29.25 28 3
      vertex -31.4 28 3
      vertex -31.5408 27.292 3
    endloop
  endfacet
  facet normal 0 0 1
    outer loop
      vertex -29.25 28 3
      vertex -31.5408 27.292 3
      vertex -31.9419 26.6919 3
    endloop
  endfacet
  facet normal 0 0 1
    outer loop
      vertex -20.4592 -0.707964 3
      vertex -31.5408 -0.707964 3
      vertex -20.0581 -1.30815 3
    endloop
  endfacet
  facet normal 0 0 1
    outer loop
      vertex -31.9419 -1.30815 3
      vertex -20.0581 -1.30815 3
      vertex -31.5408 -0.707964 3
    endloop
  endfacet
  facet normal 0 0 1
    outer loop
      vertex -33.25 -4 3
      vertex -20.0581 -1.30815 3
      vertex -31.9419 -1.30815 3
    endloop
  endfacet
  facet normal 0 0 1
    outer loop
      vertex -20.0581 -1.30815 3
      vertex -33.25 -4 3
      vertex -19.458 -1.70918 3
    endloop
  endfacet
  facet normal 0 0 1
    outer loop
      vertex -19.458 -1.70918 3
      vertex -33.25 -4 3
      vertex -18.75 -1.85 3
    endloop
  endfacet
  facet normal 0 0 1
    outer loop
      vertex -33.25 -4 3
      vertex -31.9419 -1.30815 3
      vertex -32.542 -1.70918 3
    endloop
  endfacet
  facet normal 0 0 1
    outer loop
      vertex -33.25 -4 3
      vertex -32.542 -1.70918 3
      vertex -33.25 -1.85 3
    endloop
  endfacet
  facet normal 0 0 1
    outer loop
      vertex -18.75 -1.85 3
      vertex -33.25 -4 3
      vertex 33.25 -4 3
    endloop
  endfacet
  facet normal 0 0 1
    outer loop
      vertex -33.958 -1.70918 3
      vertex -33.25 -4 3
      vertex -33.25 -1.85 3
    endloop
  endfacet
  facet normal 0 0 1
    outer loop
      vertex -34.7807 -3.69552 3
      vertex -33.958 -1.70918 3
      vertex -34.5581 -1.30815 3
    endloop
  endfacet
  facet normal 0 0 1
    outer loop
      vertex -33.958 -1.70918 3
      vertex -34.7807 -3.69552 3
      vertex -33.25 -4 3
    endloop
  endfacet
  facet normal 0 0 1
    outer loop
      vertex -36.0784 -2.82843 3
      vertex -34.5581 -1.30815 3
      vertex -34.9592 -0.707964 3
    endloop
  endfacet
  facet normal 0 0 1
    outer loop
      vertex -36.9455 -1.53073 3
      vertex -34.9592 -0.707964 3
      vertex -35.1 0 3
    endloop
  endfacet
  facet normal 0 0 1
    outer loop
      vertex -34.5581 -1.30815 3
      vertex -36.0784 -2.82843 3
      vertex -34.7807 -3.69552 3
    endloop
  endfacet
  facet normal 0 0 1
    outer loop
      vertex -34.5581 1.30815 3
      vertex -37.25 0 3
      vertex -34.9592 0.707964 3
    endloop
  endfacet
  facet normal 0 0 1
    outer loop
      vertex -35.1 28 3
      vertex -36.9455 29.5307 3
      vertex -37.25 28 3
    endloop
  endfacet
  facet normal 0 0 1
    outer loop
      vertex -34.9592 0.707964 3
      vertex -37.25 0 3
      vertex -35.1 0 3
    endloop
  endfacet
  facet normal 0 -0 1
    outer loop
      vertex -36.9455 -1.53073 3
      vertex -35.1 0 3
      vertex -37.25 0 3
    endloop
  endfacet
  facet normal 0 0 1
    outer loop
      vertex -34.9592 -0.707964 3
      vertex -36.9455 -1.53073 3
      vertex -36.0784 -2.82843 3
    endloop
  endfacet
  facet normal -0.195093 -0.980785 0
    outer loop
      vertex -34.7807 -3.69552 0
      vertex -33.25 -4 3
      vertex -34.7807 -3.69552 3
    endloop
  endfacet
  facet normal -0.195093 -0.980785 -0
    outer loop
      vertex -33.25 -4 3
      vertex -34.7807 -3.69552 0
      vertex -33.25 -4 0
    endloop
  endfacet
  facet normal -0.555568 -0.831471 0
    outer loop
      vertex -36.0784 -2.82843 0
      vertex -34.7807 -3.69552 3
      vertex -36.0784 -2.82843 3
    endloop
  endfacet
  facet normal -0.555568 -0.831471 -0
    outer loop
      vertex -34.7807 -3.69552 3
      vertex -36.0784 -2.82843 0
      vertex -34.7807 -3.69552 0
    endloop
  endfacet
  facet normal -0.980783 -0.195102 0
    outer loop
      vertex -36.9455 -1.53073 0
      vertex -37.25 0 3
      vertex -37.25 0 0
    endloop
  endfacet
  facet normal -0.980783 -0.195102 0
    outer loop
      vertex -37.25 0 3
      vertex -36.9455 -1.53073 0
      vertex -36.9455 -1.53073 3
    endloop
  endfacet
  facet normal -0.831468 -0.555572 0
    outer loop
      vertex -36.0784 -2.82843 0
      vertex -36.9455 -1.53073 3
      vertex -36.9455 -1.53073 0
    endloop
  endfacet
  facet normal -0.831468 -0.555572 0
    outer loop
      vertex -36.9455 -1.53073 3
      vertex -36.0784 -2.82843 0
      vertex -36.0784 -2.82843 3
    endloop
  endfacet
  facet normal 0.195093 -0.980785 0
    outer loop
      vertex 33.25 -4 0
      vertex 34.7807 -3.69552 3
      vertex 33.25 -4 3
    endloop
  endfacet
  facet normal 0.195093 -0.980785 0
    outer loop
      vertex 34.7807 -3.69552 3
      vertex 33.25 -4 0
      vertex 34.7807 -3.69552 0
    endloop
  endfacet
  facet normal 0.980783 -0.195102 0
    outer loop
      vertex 36.9455 -1.53073 3
      vertex 37.25 0 0
      vertex 37.25 0 3
    endloop
  endfacet
  facet normal 0.980783 -0.195102 0
    outer loop
      vertex 37.25 0 0
      vertex 36.9455 -1.53073 3
      vertex 36.9455 -1.53073 0
    endloop
  endfacet
  facet normal 0.555568 -0.831471 0
    outer loop
      vertex 34.7807 -3.69552 0
      vertex 36.0784 -2.82843 3
      vertex 34.7807 -3.69552 3
    endloop
  endfacet
  facet normal 0.555568 -0.831471 0
    outer loop
      vertex 36.0784 -2.82843 3
      vertex 34.7807 -3.69552 0
      vertex 36.0784 -2.82843 0
    endloop
  endfacet
  facet normal 0.831468 -0.555572 0
    outer loop
      vertex 36.0784 -2.82843 3
      vertex 36.9455 -1.53073 0
      vertex 36.9455 -1.53073 3
    endloop
  endfacet
  facet normal 0.831468 -0.555572 0
    outer loop
      vertex 36.9455 -1.53073 0
      vertex 36.0784 -2.82843 3
      vertex 36.0784 -2.82843 0
    endloop
  endfacet
  facet normal 0.980782 0.195106 0
    outer loop
      vertex -29.25 28 3
      vertex -29.5545 29.5307 0
      vertex -29.5545 29.5307 3
    endloop
  endfacet
  facet normal 0.980782 0.195106 0
    outer loop
      vertex -29.5545 29.5307 0
      vertex -29.25 28 3
      vertex -29.25 28 0
    endloop
  endfacet
  facet normal -0.980782 0.195106 0
    outer loop
      vertex -37.25 28 0
      vertex -36.9455 29.5307 3
      vertex -36.9455 29.5307 0
    endloop
  endfacet
  facet normal -0.980782 0.195106 0
    outer loop
      vertex -36.9455 29.5307 3
      vertex -37.25 28 0
      vertex -37.25 28 3
    endloop
  endfacet
  facet normal 0.195106 0.980782 -0
    outer loop
      vertex -31.7193 31.6955 0
      vertex -33.25 32 3
      vertex -31.7193 31.6955 3
    endloop
  endfacet
  facet normal 0.195106 0.980782 0
    outer loop
      vertex -33.25 32 3
      vertex -31.7193 31.6955 0
      vertex -33.25 32 0
    endloop
  endfacet
  facet normal 0.555572 0.831468 -0
    outer loop
      vertex -30.4216 30.8284 0
      vertex -31.7193 31.6955 3
      vertex -30.4216 30.8284 3
    endloop
  endfacet
  facet normal 0.555572 0.831468 0
    outer loop
      vertex -31.7193 31.6955 3
      vertex -30.4216 30.8284 0
      vertex -31.7193 31.6955 0
    endloop
  endfacet
  facet normal 0.831468 0.555572 0
    outer loop
      vertex -29.5545 29.5307 3
      vertex -30.4216 30.8284 0
      vertex -30.4216 30.8284 3
    endloop
  endfacet
  facet normal 0.831468 0.555572 0
    outer loop
      vertex -30.4216 30.8284 0
      vertex -29.5545 29.5307 3
      vertex -29.5545 29.5307 0
    endloop
  endfacet
  facet normal -0.555572 0.831468 0
    outer loop
      vertex -34.7807 31.6955 0
      vertex -36.0784 30.8284 3
      vertex -34.7807 31.6955 3
    endloop
  endfacet
  facet normal -0.555572 0.831468 0
    outer loop
      vertex -36.0784 30.8284 3
      vertex -34.7807 31.6955 0
      vertex -36.0784 30.8284 0
    endloop
  endfacet
  facet normal -0.831468 0.555572 0
    outer loop
      vertex -36.9455 29.5307 0
      vertex -36.0784 30.8284 3
      vertex -36.0784 30.8284 0
    endloop
  endfacet
  facet normal -0.831468 0.555572 0
    outer loop
      vertex -36.0784 30.8284 3
      vertex -36.9455 29.5307 0
      vertex -36.9455 29.5307 3
    endloop
  endfacet
  facet normal -0.195106 0.980782 0
    outer loop
      vertex -33.25 32 0
      vertex -34.7807 31.6955 3
      vertex -33.25 32 3
    endloop
  endfacet
  facet normal -0.195106 0.980782 0
    outer loop
      vertex -34.7807 31.6955 3
      vertex -33.25 32 0
      vertex -34.7807 31.6955 0
    endloop
  endfacet
  facet normal 0.980782 0.195106 0
    outer loop
      vertex 37.25 28 3
      vertex 36.9455 29.5307 0
      vertex 36.9455 29.5307 3
    endloop
  endfacet
  facet normal 0.980782 0.195106 0
    outer loop
      vertex 36.9455 29.5307 0
      vertex 37.25 28 3
      vertex 37.25 28 0
    endloop
  endfacet
  facet normal -0.195106 0.980782 0
    outer loop
      vertex 33.25 32 0
      vertex 31.7193 31.6955 3
      vertex 33.25 32 3
    endloop
  endfacet
  facet normal -0.195106 0.980782 0
    outer loop
      vertex 31.7193 31.6955 3
      vertex 33.25 32 0
      vertex 31.7193 31.6955 0
    endloop
  endfacet
  facet normal 0.555572 0.831468 -0
    outer loop
      vertex 36.0784 30.8284 0
      vertex 34.7807 31.6955 3
      vertex 36.0784 30.8284 3
    endloop
  endfacet
  facet normal 0.555572 0.831468 0
    outer loop
      vertex 34.7807 31.6955 3
      vertex 36.0784 30.8284 0
      vertex 34.7807 31.6955 0
    endloop
  endfacet
  facet normal 0.831468 0.555572 0
    outer loop
      vertex 36.9455 29.5307 3
      vertex 36.0784 30.8284 0
      vertex 36.0784 30.8284 3
    endloop
  endfacet
  facet normal 0.831468 0.555572 0
    outer loop
      vertex 36.0784 30.8284 0
      vertex 36.9455 29.5307 3
      vertex 36.9455 29.5307 0
    endloop
  endfacet
  facet normal 0.195106 0.980782 -0
    outer loop
      vertex 34.7807 31.6955 0
      vertex 33.25 32 3
      vertex 34.7807 31.6955 3
    endloop
  endfacet
  facet normal 0.195106 0.980782 0
    outer loop
      vertex 33.25 32 3
      vertex 34.7807 31.6955 0
      vertex 33.25 32 0
    endloop
  endfacet
  facet normal -0.831468 0.555572 0
    outer loop
      vertex 29.5545 29.5307 0
      vertex 30.4216 30.8284 3
      vertex 30.4216 30.8284 0
    endloop
  endfacet
  facet normal -0.831468 0.555572 0
    outer loop
      vertex 30.4216 30.8284 3
      vertex 29.5545 29.5307 0
      vertex 29.5545 29.5307 3
    endloop
  endfacet
  facet normal -0.980782 0.195106 0
    outer loop
      vertex 29.25 28 0
      vertex 29.5545 29.5307 3
      vertex 29.5545 29.5307 0
    endloop
  endfacet
  facet normal -0.980782 0.195106 0
    outer loop
      vertex 29.5545 29.5307 3
      vertex 29.25 28 0
      vertex 29.25 28 3
    endloop
  endfacet
  facet normal -0.555572 0.831468 0
    outer loop
      vertex 31.7193 31.6955 0
      vertex 30.4216 30.8284 3
      vertex 31.7193 31.6955 3
    endloop
  endfacet
  facet normal -0.555572 0.831468 0
    outer loop
      vertex 30.4216 30.8284 3
      vertex 31.7193 31.6955 0
      vertex 30.4216 30.8284 0
    endloop
  endfacet
  facet normal 0 -1 0
    outer loop
      vertex -33.25 -4 0
      vertex 33.25 -4 3
      vertex -33.25 -4 3
    endloop
  endfacet
  facet normal 0 -1 -0
    outer loop
      vertex 33.25 -4 3
      vertex -33.25 -4 0
      vertex 33.25 -4 0
    endloop
  endfacet
  facet normal 0 1 -0
    outer loop
      vertex 29.25 4 0
      vertex -29.25 4 3
      vertex 29.25 4 3
    endloop
  endfacet
  facet normal 0 1 0
    outer loop
      vertex -29.25 4 3
      vertex 29.25 4 0
      vertex -29.25 4 0
    endloop
  endfacet
  facet normal -1 0 0
    outer loop
      vertex -37.25 0 0
      vertex -37.25 28 3
      vertex -37.25 28 0
    endloop
  endfacet
  facet normal -1 -0 0
    outer loop
      vertex -37.25 28 3
      vertex -37.25 0 0
      vertex -37.25 0 3
    endloop
  endfacet
  facet normal 1 -0 0
    outer loop
      vertex -29.25 4 3
      vertex -29.25 28 0
      vertex -29.25 28 3
    endloop
  endfacet
  facet normal 1 0 0
    outer loop
      vertex -29.25 28 0
      vertex -29.25 4 3
      vertex -29.25 4 0
    endloop
  endfacet
  facet normal -1 0 0
    outer loop
      vertex 29.25 4 0
      vertex 29.25 28 3
      vertex 29.25 28 0
    endloop
  endfacet
  facet normal -1 -0 0
    outer loop
      vertex 29.25 28 3
      vertex 29.25 4 0
      vertex 29.25 4 3
    endloop
  endfacet
  facet normal 1 -0 0
    outer loop
      vertex 37.25 0 3
      vertex 37.25 28 0
      vertex 37.25 28 3
    endloop
  endfacet
  facet normal 1 0 0
    outer loop
      vertex 37.25 28 0
      vertex 37.25 0 3
      vertex 37.25 0 0
    endloop
  endfacet
  facet normal -0.980791 -0.19506 0
    outer loop
      vertex -16.9 0 0
      vertex -17.0408 0.707964 3
      vertex -17.0408 0.707964 0
    endloop
  endfacet
  facet normal -0.980791 -0.19506 0
    outer loop
      vertex -17.0408 0.707964 3
      vertex -16.9 0 0
      vertex -16.9 0 3
    endloop
  endfacet
  facet normal 0.980791 -0.19506 0
    outer loop
      vertex -20.6 0 3
      vertex -20.4592 0.707964 0
      vertex -20.4592 0.707964 3
    endloop
  endfacet
  facet normal 0.980791 -0.19506 0
    outer loop
      vertex -20.4592 0.707964 0
      vertex -20.6 0 3
      vertex -20.6 0 0
    endloop
  endfacet
  facet normal 0.980791 0.19506 0
    outer loop
      vertex -20.4592 -0.707964 3
      vertex -20.6 0 0
      vertex -20.6 0 3
    endloop
  endfacet
  facet normal 0.980791 0.19506 0
    outer loop
      vertex -20.6 0 0
      vertex -20.4592 -0.707964 3
      vertex -20.4592 -0.707964 0
    endloop
  endfacet
  facet normal 0.195077 -0.980788 0
    outer loop
      vertex -19.458 1.70918 0
      vertex -18.75 1.85 3
      vertex -19.458 1.70918 3
    endloop
  endfacet
  facet normal 0.195077 -0.980788 0
    outer loop
      vertex -18.75 1.85 3
      vertex -19.458 1.70918 0
      vertex -18.75 1.85 0
    endloop
  endfacet
  facet normal 0.555624 -0.831434 0
    outer loop
      vertex -20.0581 1.30815 0
      vertex -19.458 1.70918 3
      vertex -20.0581 1.30815 3
    endloop
  endfacet
  facet normal 0.555624 -0.831434 0
    outer loop
      vertex -19.458 1.70918 3
      vertex -20.0581 1.30815 0
      vertex -19.458 1.70918 0
    endloop
  endfacet
  facet normal -0.555624 -0.831434 0
    outer loop
      vertex -18.042 1.70918 0
      vertex -17.4419 1.30815 3
      vertex -18.042 1.70918 3
    endloop
  endfacet
  facet normal -0.555624 -0.831434 -0
    outer loop
      vertex -17.4419 1.30815 3
      vertex -18.042 1.70918 0
      vertex -17.4419 1.30815 0
    endloop
  endfacet
  facet normal -0.831426 -0.555636 0
    outer loop
      vertex -17.0408 0.707964 0
      vertex -17.4419 1.30815 3
      vertex -17.4419 1.30815 0
    endloop
  endfacet
  facet normal -0.831426 -0.555636 0
    outer loop
      vertex -17.4419 1.30815 3
      vertex -17.0408 0.707964 0
      vertex -17.0408 0.707964 3
    endloop
  endfacet
  facet normal -0.195077 -0.980788 0
    outer loop
      vertex -18.75 1.85 0
      vertex -18.042 1.70918 3
      vertex -18.75 1.85 3
    endloop
  endfacet
  facet normal -0.195077 -0.980788 -0
    outer loop
      vertex -18.042 1.70918 3
      vertex -18.75 1.85 0
      vertex -18.042 1.70918 0
    endloop
  endfacet
  facet normal 0.831426 -0.555636 0
    outer loop
      vertex -20.4592 0.707964 3
      vertex -20.0581 1.30815 0
      vertex -20.0581 1.30815 3
    endloop
  endfacet
  facet normal 0.831426 -0.555636 0
    outer loop
      vertex -20.0581 1.30815 0
      vertex -20.4592 0.707964 3
      vertex -20.4592 0.707964 0
    endloop
  endfacet
  facet normal -0.555624 0.831434 0
    outer loop
      vertex -17.4419 -1.30815 0
      vertex -18.042 -1.70918 3
      vertex -17.4419 -1.30815 3
    endloop
  endfacet
  facet normal -0.555624 0.831434 0
    outer loop
      vertex -18.042 -1.70918 3
      vertex -17.4419 -1.30815 0
      vertex -18.042 -1.70918 0
    endloop
  endfacet
  facet normal -0.831426 0.555636 0
    outer loop
      vertex -17.4419 -1.30815 0
      vertex -17.0408 -0.707964 3
      vertex -17.0408 -0.707964 0
    endloop
  endfacet
  facet normal -0.831426 0.555636 0
    outer loop
      vertex -17.0408 -0.707964 3
      vertex -17.4419 -1.30815 0
      vertex -17.4419 -1.30815 3
    endloop
  endfacet
  facet normal -0.980791 0.19506 0
    outer loop
      vertex -17.0408 -0.707964 0
      vertex -16.9 0 3
      vertex -16.9 0 0
    endloop
  endfacet
  facet normal -0.980791 0.19506 0
    outer loop
      vertex -16.9 0 3
      vertex -17.0408 -0.707964 0
      vertex -17.0408 -0.707964 3
    endloop
  endfacet
  facet normal 0.555624 0.831434 -0
    outer loop
      vertex -19.458 -1.70918 0
      vertex -20.0581 -1.30815 3
      vertex -19.458 -1.70918 3
    endloop
  endfacet
  facet normal 0.555624 0.831434 0
    outer loop
      vertex -20.0581 -1.30815 3
      vertex -19.458 -1.70918 0
      vertex -20.0581 -1.30815 0
    endloop
  endfacet
  facet normal 0.831426 0.555636 0
    outer loop
      vertex -20.0581 -1.30815 3
      vertex -20.4592 -0.707964 0
      vertex -20.4592 -0.707964 3
    endloop
  endfacet
  facet normal 0.831426 0.555636 0
    outer loop
      vertex -20.4592 -0.707964 0
      vertex -20.0581 -1.30815 3
      vertex -20.0581 -1.30815 0
    endloop
  endfacet
  facet normal -0.195077 0.980788 0
    outer loop
      vertex -18.042 -1.70918 0
      vertex -18.75 -1.85 3
      vertex -18.042 -1.70918 3
    endloop
  endfacet
  facet normal -0.195077 0.980788 0
    outer loop
      vertex -18.75 -1.85 3
      vertex -18.042 -1.70918 0
      vertex -18.75 -1.85 0
    endloop
  endfacet
  facet normal 0.195077 0.980788 -0
    outer loop
      vertex -18.75 -1.85 0
      vertex -19.458 -1.70918 3
      vertex -18.75 -1.85 3
    endloop
  endfacet
  facet normal 0.195077 0.980788 0
    outer loop
      vertex -19.458 -1.70918 3
      vertex -18.75 -1.85 0
      vertex -19.458 -1.70918 0
    endloop
  endfacet
  facet normal -0.980791 -0.19506 0
    outer loop
      vertex 20.6 0 0
      vertex 20.4592 0.707964 3
      vertex 20.4592 0.707964 0
    endloop
  endfacet
  facet normal -0.980791 -0.19506 0
    outer loop
      vertex 20.4592 0.707964 3
      vertex 20.6 0 0
      vertex 20.6 0 3
    endloop
  endfacet
  facet normal 0.980791 -0.19506 0
    outer loop
      vertex 16.9 0 3
      vertex 17.0408 0.707964 0
      vertex 17.0408 0.707964 3
    endloop
  endfacet
  facet normal 0.980791 -0.19506 0
    outer loop
      vertex 17.0408 0.707964 0
      vertex 16.9 0 3
      vertex 16.9 0 0
    endloop
  endfacet
  facet normal 0.980791 0.19506 0
    outer loop
      vertex 17.0408 -0.707964 3
      vertex 16.9 0 0
      vertex 16.9 0 3
    endloop
  endfacet
  facet normal 0.980791 0.19506 0
    outer loop
      vertex 16.9 0 0
      vertex 17.0408 -0.707964 3
      vertex 17.0408 -0.707964 0
    endloop
  endfacet
  facet normal 0.195077 -0.980788 0
    outer loop
      vertex 18.042 1.70918 0
      vertex 18.75 1.85 3
      vertex 18.042 1.70918 3
    endloop
  endfacet
  facet normal 0.195077 -0.980788 0
    outer loop
      vertex 18.75 1.85 3
      vertex 18.042 1.70918 0
      vertex 18.75 1.85 0
    endloop
  endfacet
  facet normal 0.555624 -0.831434 0
    outer loop
      vertex 17.4419 1.30815 0
      vertex 18.042 1.70918 3
      vertex 17.4419 1.30815 3
    endloop
  endfacet
  facet normal 0.555624 -0.831434 0
    outer loop
      vertex 18.042 1.70918 3
      vertex 17.4419 1.30815 0
      vertex 18.042 1.70918 0
    endloop
  endfacet
  facet normal -0.555624 -0.831434 0
    outer loop
      vertex 19.458 1.70918 0
      vertex 20.0581 1.30815 3
      vertex 19.458 1.70918 3
    endloop
  endfacet
  facet normal -0.555624 -0.831434 -0
    outer loop
      vertex 20.0581 1.30815 3
      vertex 19.458 1.70918 0
      vertex 20.0581 1.30815 0
    endloop
  endfacet
  facet normal -0.831426 -0.555636 0
    outer loop
      vertex 20.4592 0.707964 0
      vertex 20.0581 1.30815 3
      vertex 20.0581 1.30815 0
    endloop
  endfacet
  facet normal -0.831426 -0.555636 0
    outer loop
      vertex 20.0581 1.30815 3
      vertex 20.4592 0.707964 0
      vertex 20.4592 0.707964 3
    endloop
  endfacet
  facet normal -0.195077 -0.980788 0
    outer loop
      vertex 18.75 1.85 0
      vertex 19.458 1.70918 3
      vertex 18.75 1.85 3
    endloop
  endfacet
  facet normal -0.195077 -0.980788 -0
    outer loop
      vertex 19.458 1.70918 3
      vertex 18.75 1.85 0
      vertex 19.458 1.70918 0
    endloop
  endfacet
  facet normal 0.831426 -0.555636 0
    outer loop
      vertex 17.0408 0.707964 3
      vertex 17.4419 1.30815 0
      vertex 17.4419 1.30815 3
    endloop
  endfacet
  facet normal 0.831426 -0.555636 0
    outer loop
      vertex 17.4419 1.30815 0
      vertex 17.0408 0.707964 3
      vertex 17.0408 0.707964 0
    endloop
  endfacet
  facet normal -0.555624 0.831434 0
    outer loop
      vertex 20.0581 -1.30815 0
      vertex 19.458 -1.70918 3
      vertex 20.0581 -1.30815 3
    endloop
  endfacet
  facet normal -0.555624 0.831434 0
    outer loop
      vertex 19.458 -1.70918 3
      vertex 20.0581 -1.30815 0
      vertex 19.458 -1.70918 0
    endloop
  endfacet
  facet normal -0.831426 0.555636 0
    outer loop
      vertex 20.0581 -1.30815 0
      vertex 20.4592 -0.707964 3
      vertex 20.4592 -0.707964 0
    endloop
  endfacet
  facet normal -0.831426 0.555636 0
    outer loop
      vertex 20.4592 -0.707964 3
      vertex 20.0581 -1.30815 0
      vertex 20.0581 -1.30815 3
    endloop
  endfacet
  facet normal -0.980791 0.19506 0
    outer loop
      vertex 20.4592 -0.707964 0
      vertex 20.6 0 3
      vertex 20.6 0 0
    endloop
  endfacet
  facet normal -0.980791 0.19506 0
    outer loop
      vertex 20.6 0 3
      vertex 20.4592 -0.707964 0
      vertex 20.4592 -0.707964 3
    endloop
  endfacet
  facet normal 0.555624 0.831434 -0
    outer loop
      vertex 18.042 -1.70918 0
      vertex 17.4419 -1.30815 3
      vertex 18.042 -1.70918 3
    endloop
  endfacet
  facet normal 0.555624 0.831434 0
    outer loop
      vertex 17.4419 -1.30815 3
      vertex 18.042 -1.70918 0
      vertex 17.4419 -1.30815 0
    endloop
  endfacet
  facet normal 0.831426 0.555636 0
    outer loop
      vertex 17.4419 -1.30815 3
      vertex 17.0408 -0.707964 0
      vertex 17.0408 -0.707964 3
    endloop
  endfacet
  facet normal 0.831426 0.555636 0
    outer loop
      vertex 17.0408 -0.707964 0
      vertex 17.4419 -1.30815 3
      vertex 17.4419 -1.30815 0
    endloop
  endfacet
  facet normal -0.195077 0.980788 0
    outer loop
      vertex 19.458 -1.70918 0
      vertex 18.75 -1.85 3
      vertex 19.458 -1.70918 3
    endloop
  endfacet
  facet normal -0.195077 0.980788 0
    outer loop
      vertex 18.75 -1.85 3
      vertex 19.458 -1.70918 0
      vertex 18.75 -1.85 0
    endloop
  endfacet
  facet normal 0.195077 0.980788 -0
    outer loop
      vertex 18.75 -1.85 0
      vertex 18.042 -1.70918 3
      vertex 18.75 -1.85 3
    endloop
  endfacet
  facet normal 0.195077 0.980788 0
    outer loop
      vertex 18.042 -1.70918 3
      vertex 18.75 -1.85 0
      vertex 18.042 -1.70918 0
    endloop
  endfacet
  facet normal -0.980791 -0.19506 0
    outer loop
      vertex -31.4 0 0
      vertex -31.5408 0.707964 3
      vertex -31.5408 0.707964 0
    endloop
  endfacet
  facet normal -0.980791 -0.19506 0
    outer loop
      vertex -31.5408 0.707964 3
      vertex -31.4 0 0
      vertex -31.4 0 3
    endloop
  endfacet
  facet normal 0.980791 -0.19506 0
    outer loop
      vertex -35.1 0 3
      vertex -34.9592 0.707964 0
      vertex -34.9592 0.707964 3
    endloop
  endfacet
  facet normal 0.980791 -0.19506 0
    outer loop
      vertex -34.9592 0.707964 0
      vertex -35.1 0 3
      vertex -35.1 0 0
    endloop
  endfacet
  facet normal 0.980791 0.19506 0
    outer loop
      vertex -34.9592 -0.707964 3
      vertex -35.1 0 0
      vertex -35.1 0 3
    endloop
  endfacet
  facet normal 0.980791 0.19506 0
    outer loop
      vertex -35.1 0 0
      vertex -34.9592 -0.707964 3
      vertex -34.9592 -0.707964 0
    endloop
  endfacet
  facet normal 0.195077 -0.980788 0
    outer loop
      vertex -33.958 1.70918 0
      vertex -33.25 1.85 3
      vertex -33.958 1.70918 3
    endloop
  endfacet
  facet normal 0.195077 -0.980788 0
    outer loop
      vertex -33.25 1.85 3
      vertex -33.958 1.70918 0
      vertex -33.25 1.85 0
    endloop
  endfacet
  facet normal 0.555624 -0.831434 0
    outer loop
      vertex -34.5581 1.30815 0
      vertex -33.958 1.70918 3
      vertex -34.5581 1.30815 3
    endloop
  endfacet
  facet normal 0.555624 -0.831434 0
    outer loop
      vertex -33.958 1.70918 3
      vertex -34.5581 1.30815 0
      vertex -33.958 1.70918 0
    endloop
  endfacet
  facet normal -0.555624 -0.831434 0
    outer loop
      vertex -32.542 1.70918 0
      vertex -31.9419 1.30815 3
      vertex -32.542 1.70918 3
    endloop
  endfacet
  facet normal -0.555624 -0.831434 -0
    outer loop
      vertex -31.9419 1.30815 3
      vertex -32.542 1.70918 0
      vertex -31.9419 1.30815 0
    endloop
  endfacet
  facet normal -0.831426 -0.555636 0
    outer loop
      vertex -31.5408 0.707964 0
      vertex -31.9419 1.30815 3
      vertex -31.9419 1.30815 0
    endloop
  endfacet
  facet normal -0.831426 -0.555636 0
    outer loop
      vertex -31.9419 1.30815 3
      vertex -31.5408 0.707964 0
      vertex -31.5408 0.707964 3
    endloop
  endfacet
  facet normal -0.195077 -0.980788 0
    outer loop
      vertex -33.25 1.85 0
      vertex -32.542 1.70918 3
      vertex -33.25 1.85 3
    endloop
  endfacet
  facet normal -0.195077 -0.980788 -0
    outer loop
      vertex -32.542 1.70918 3
      vertex -33.25 1.85 0
      vertex -32.542 1.70918 0
    endloop
  endfacet
  facet normal 0.831426 -0.555636 0
    outer loop
      vertex -34.9592 0.707964 3
      vertex -34.5581 1.30815 0
      vertex -34.5581 1.30815 3
    endloop
  endfacet
  facet normal 0.831426 -0.555636 0
    outer loop
      vertex -34.5581 1.30815 0
      vertex -34.9592 0.707964 3
      vertex -34.9592 0.707964 0
    endloop
  endfacet
  facet normal -0.555624 0.831434 0
    outer loop
      vertex -31.9419 -1.30815 0
      vertex -32.542 -1.70918 3
      vertex -31.9419 -1.30815 3
    endloop
  endfacet
  facet normal -0.555624 0.831434 0
    outer loop
      vertex -32.542 -1.70918 3
      vertex -31.9419 -1.30815 0
      vertex -32.542 -1.70918 0
    endloop
  endfacet
  facet normal -0.831426 0.555636 0
    outer loop
      vertex -31.9419 -1.30815 0
      vertex -31.5408 -0.707964 3
      vertex -31.5408 -0.707964 0
    endloop
  endfacet
  facet normal -0.831426 0.555636 0
    outer loop
      vertex -31.5408 -0.707964 3
      vertex -31.9419 -1.30815 0
      vertex -31.9419 -1.30815 3
    endloop
  endfacet
  facet normal -0.980791 0.19506 0
    outer loop
      vertex -31.5408 -0.707964 0
      vertex -31.4 0 3
      vertex -31.4 0 0
    endloop
  endfacet
  facet normal -0.980791 0.19506 0
    outer loop
      vertex -31.4 0 3
      vertex -31.5408 -0.707964 0
      vertex -31.5408 -0.707964 3
    endloop
  endfacet
  facet normal 0.555624 0.831434 -0
    outer loop
      vertex -33.958 -1.70918 0
      vertex -34.5581 -1.30815 3
      vertex -33.958 -1.70918 3
    endloop
  endfacet
  facet normal 0.555624 0.831434 0
    outer loop
      vertex -34.5581 -1.30815 3
      vertex -33.958 -1.70918 0
      vertex -34.5581 -1.30815 0
    endloop
  endfacet
  facet normal 0.831426 0.555636 0
    outer loop
      vertex -34.5581 -1.30815 3
      vertex -34.9592 -0.707964 0
      vertex -34.9592 -0.707964 3
    endloop
  endfacet
  facet normal 0.831426 0.555636 0
    outer loop
      vertex -34.9592 -0.707964 0
      vertex -34.5581 -1.30815 3
      vertex -34.5581 -1.30815 0
    endloop
  endfacet
  facet normal -0.195077 0.980788 0
    outer loop
      vertex -32.542 -1.70918 0
      vertex -33.25 -1.85 3
      vertex -32.542 -1.70918 3
    endloop
  endfacet
  facet normal -0.195077 0.980788 0
    outer loop
      vertex -33.25 -1.85 3
      vertex -32.542 -1.70918 0
      vertex -33.25 -1.85 0
    endloop
  endfacet
  facet normal 0.195077 0.980788 -0
    outer loop
      vertex -33.25 -1.85 0
      vertex -33.958 -1.70918 3
      vertex -33.25 -1.85 3
    endloop
  endfacet
  facet normal 0.195077 0.980788 0
    outer loop
      vertex -33.958 -1.70918 3
      vertex -33.25 -1.85 0
      vertex -33.958 -1.70918 0
    endloop
  endfacet
  facet normal -0.980791 -0.19506 0
    outer loop
      vertex 35.1 0 0
      vertex 34.9592 0.707964 3
      vertex 34.9592 0.707964 0
    endloop
  endfacet
  facet normal -0.980791 -0.19506 0
    outer loop
      vertex 34.9592 0.707964 3
      vertex 35.1 0 0
      vertex 35.1 0 3
    endloop
  endfacet
  facet normal 0.980791 -0.19506 0
    outer loop
      vertex 31.4 0 3
      vertex 31.5408 0.707964 0
      vertex 31.5408 0.707964 3
    endloop
  endfacet
  facet normal 0.980791 -0.19506 0
    outer loop
      vertex 31.5408 0.707964 0
      vertex 31.4 0 3
      vertex 31.4 0 0
    endloop
  endfacet
  facet normal 0.980791 0.19506 0
    outer loop
      vertex 31.5408 -0.707964 3
      vertex 31.4 0 0
      vertex 31.4 0 3
    endloop
  endfacet
  facet normal 0.980791 0.19506 0
    outer loop
      vertex 31.4 0 0
      vertex 31.5408 -0.707964 3
      vertex 31.5408 -0.707964 0
    endloop
  endfacet
  facet normal 0.195077 -0.980788 0
    outer loop
      vertex 32.542 1.70918 0
      vertex 33.25 1.85 3
      vertex 32.542 1.70918 3
    endloop
  endfacet
  facet normal 0.195077 -0.980788 0
    outer loop
      vertex 33.25 1.85 3
      vertex 32.542 1.70918 0
      vertex 33.25 1.85 0
    endloop
  endfacet
  facet normal 0.555624 -0.831434 0
    outer loop
      vertex 31.9419 1.30815 0
      vertex 32.542 1.70918 3
      vertex 31.9419 1.30815 3
    endloop
  endfacet
  facet normal 0.555624 -0.831434 0
    outer loop
      vertex 32.542 1.70918 3
      vertex 31.9419 1.30815 0
      vertex 32.542 1.70918 0
    endloop
  endfacet
  facet normal -0.555624 -0.831434 0
    outer loop
      vertex 33.958 1.70918 0
      vertex 34.5581 1.30815 3
      vertex 33.958 1.70918 3
    endloop
  endfacet
  facet normal -0.555624 -0.831434 -0
    outer loop
      vertex 34.5581 1.30815 3
      vertex 33.958 1.70918 0
      vertex 34.5581 1.30815 0
    endloop
  endfacet
  facet normal -0.831426 -0.555636 0
    outer loop
      vertex 34.9592 0.707964 0
      vertex 34.5581 1.30815 3
      vertex 34.5581 1.30815 0
    endloop
  endfacet
  facet normal -0.831426 -0.555636 0
    outer loop
      vertex 34.5581 1.30815 3
      vertex 34.9592 0.707964 0
      vertex 34.9592 0.707964 3
    endloop
  endfacet
  facet normal -0.195077 -0.980788 0
    outer loop
      vertex 33.25 1.85 0
      vertex 33.958 1.70918 3
      vertex 33.25 1.85 3
    endloop
  endfacet
  facet normal -0.195077 -0.980788 -0
    outer loop
      vertex 33.958 1.70918 3
      vertex 33.25 1.85 0
      vertex 33.958 1.70918 0
    endloop
  endfacet
  facet normal 0.831426 -0.555636 0
    outer loop
      vertex 31.5408 0.707964 3
      vertex 31.9419 1.30815 0
      vertex 31.9419 1.30815 3
    endloop
  endfacet
  facet normal 0.831426 -0.555636 0
    outer loop
      vertex 31.9419 1.30815 0
      vertex 31.5408 0.707964 3
      vertex 31.5408 0.707964 0
    endloop
  endfacet
  facet normal -0.555624 0.831434 0
    outer loop
      vertex 34.5581 -1.30815 0
      vertex 33.958 -1.70918 3
      vertex 34.5581 -1.30815 3
    endloop
  endfacet
  facet normal -0.555624 0.831434 0
    outer loop
      vertex 33.958 -1.70918 3
      vertex 34.5581 -1.30815 0
      vertex 33.958 -1.70918 0
    endloop
  endfacet
  facet normal -0.831426 0.555636 0
    outer loop
      vertex 34.5581 -1.30815 0
      vertex 34.9592 -0.707964 3
      vertex 34.9592 -0.707964 0
    endloop
  endfacet
  facet normal -0.831426 0.555636 0
    outer loop
      vertex 34.9592 -0.707964 3
      vertex 34.5581 -1.30815 0
      vertex 34.5581 -1.30815 3
    endloop
  endfacet
  facet normal -0.980791 0.19506 0
    outer loop
      vertex 34.9592 -0.707964 0
      vertex 35.1 0 3
      vertex 35.1 0 0
    endloop
  endfacet
  facet normal -0.980791 0.19506 0
    outer loop
      vertex 35.1 0 3
      vertex 34.9592 -0.707964 0
      vertex 34.9592 -0.707964 3
    endloop
  endfacet
  facet normal 0.555624 0.831434 -0
    outer loop
      vertex 32.542 -1.70918 0
      vertex 31.9419 -1.30815 3
      vertex 32.542 -1.70918 3
    endloop
  endfacet
  facet normal 0.555624 0.831434 0
    outer loop
      vertex 31.9419 -1.30815 3
      vertex 32.542 -1.70918 0
      vertex 31.9419 -1.30815 0
    endloop
  endfacet
  facet normal 0.831426 0.555636 0
    outer loop
      vertex 31.9419 -1.30815 3
      vertex 31.5408 -0.707964 0
      vertex 31.5408 -0.707964 3
    endloop
  endfacet
  facet normal 0.831426 0.555636 0
    outer loop
      vertex 31.5408 -0.707964 0
      vertex 31.9419 -1.30815 3
      vertex 31.9419 -1.30815 0
    endloop
  endfacet
  facet normal -0.195077 0.980788 0
    outer loop
      vertex 33.958 -1.70918 0
      vertex 33.25 -1.85 3
      vertex 33.958 -1.70918 3
    endloop
  endfacet
  facet normal -0.195077 0.980788 0
    outer loop
      vertex 33.25 -1.85 3
      vertex 33.958 -1.70918 0
      vertex 33.25 -1.85 0
    endloop
  endfacet
  facet normal 0.195077 0.980788 -0
    outer loop
      vertex 33.25 -1.85 0
      vertex 32.542 -1.70918 3
      vertex 33.25 -1.85 3
    endloop
  endfacet
  facet normal 0.195077 0.980788 0
    outer loop
      vertex 32.542 -1.70918 3
      vertex 33.25 -1.85 0
      vertex 32.542 -1.70918 0
    endloop
  endfacet
  facet normal -0.980793 -0.19505 0
    outer loop
      vertex -31.4 28 0
      vertex -31.5408 28.708 3
      vertex -31.5408 28.708 0
    endloop
  endfacet
  facet normal -0.980793 -0.19505 0
    outer loop
      vertex -31.5408 28.708 3
      vertex -31.4 28 0
      vertex -31.4 28 3
    endloop
  endfacet
  facet normal -0.19505 -0.980793 0
    outer loop
      vertex -33.25 29.85 0
      vertex -32.542 29.7092 3
      vertex -33.25 29.85 3
    endloop
  endfacet
  facet normal -0.19505 -0.980793 -0
    outer loop
      vertex -32.542 29.7092 3
      vertex -33.25 29.85 0
      vertex -32.542 29.7092 0
    endloop
  endfacet
  facet normal 0.980793 0.19505 0
    outer loop
      vertex -34.9592 27.292 3
      vertex -35.1 28 0
      vertex -35.1 28 3
    endloop
  endfacet
  facet normal 0.980793 0.19505 0
    outer loop
      vertex -35.1 28 0
      vertex -34.9592 27.292 3
      vertex -34.9592 27.292 0
    endloop
  endfacet
  facet normal -0.19505 0.980793 0
    outer loop
      vertex -32.542 26.2908 0
      vertex -33.25 26.15 3
      vertex -32.542 26.2908 3
    endloop
  endfacet
  facet normal -0.19505 0.980793 0
    outer loop
      vertex -33.25 26.15 3
      vertex -32.542 26.2908 0
      vertex -33.25 26.15 0
    endloop
  endfacet
  facet normal -0.555691 -0.831389 0
    outer loop
      vertex -32.542 29.7092 0
      vertex -31.9419 29.3081 3
      vertex -32.542 29.7092 3
    endloop
  endfacet
  facet normal -0.555691 -0.831389 -0
    outer loop
      vertex -31.9419 29.3081 3
      vertex -32.542 29.7092 0
      vertex -31.9419 29.3081 0
    endloop
  endfacet
  facet normal -0.831389 -0.555691 0
    outer loop
      vertex -31.5408 28.708 0
      vertex -31.9419 29.3081 3
      vertex -31.9419 29.3081 0
    endloop
  endfacet
  facet normal -0.831389 -0.555691 0
    outer loop
      vertex -31.9419 29.3081 3
      vertex -31.5408 28.708 0
      vertex -31.5408 28.708 3
    endloop
  endfacet
  facet normal 0.19505 -0.980793 0
    outer loop
      vertex -33.958 29.7092 0
      vertex -33.25 29.85 3
      vertex -33.958 29.7092 3
    endloop
  endfacet
  facet normal 0.19505 -0.980793 0
    outer loop
      vertex -33.25 29.85 3
      vertex -33.958 29.7092 0
      vertex -33.25 29.85 0
    endloop
  endfacet
  facet normal 0.555691 -0.831389 0
    outer loop
      vertex -34.5581 29.3081 0
      vertex -33.958 29.7092 3
      vertex -34.5581 29.3081 3
    endloop
  endfacet
  facet normal 0.555691 -0.831389 0
    outer loop
      vertex -33.958 29.7092 3
      vertex -34.5581 29.3081 0
      vertex -33.958 29.7092 0
    endloop
  endfacet
  facet normal 0.831389 -0.555691 0
    outer loop
      vertex -34.9592 28.708 3
      vertex -34.5581 29.3081 0
      vertex -34.5581 29.3081 3
    endloop
  endfacet
  facet normal 0.831389 -0.555691 0
    outer loop
      vertex -34.5581 29.3081 0
      vertex -34.9592 28.708 3
      vertex -34.9592 28.708 0
    endloop
  endfacet
  facet normal -0.980793 0.19505 0
    outer loop
      vertex -31.5408 27.292 0
      vertex -31.4 28 3
      vertex -31.4 28 0
    endloop
  endfacet
  facet normal -0.980793 0.19505 0
    outer loop
      vertex -31.4 28 3
      vertex -31.5408 27.292 0
      vertex -31.5408 27.292 3
    endloop
  endfacet
  facet normal -0.555691 0.831389 0
    outer loop
      vertex -31.9419 26.6919 0
      vertex -32.542 26.2908 3
      vertex -31.9419 26.6919 3
    endloop
  endfacet
  facet normal -0.555691 0.831389 0
    outer loop
      vertex -32.542 26.2908 3
      vertex -31.9419 26.6919 0
      vertex -32.542 26.2908 0
    endloop
  endfacet
  facet normal -0.831389 0.555691 0
    outer loop
      vertex -31.9419 26.6919 0
      vertex -31.5408 27.292 3
      vertex -31.5408 27.292 0
    endloop
  endfacet
  facet normal -0.831389 0.555691 0
    outer loop
      vertex -31.5408 27.292 3
      vertex -31.9419 26.6919 0
      vertex -31.9419 26.6919 3
    endloop
  endfacet
  facet normal 0.831389 0.555691 0
    outer loop
      vertex -34.5581 26.6919 3
      vertex -34.9592 27.292 0
      vertex -34.9592 27.292 3
    endloop
  endfacet
  facet normal 0.831389 0.555691 0
    outer loop
      vertex -34.9592 27.292 0
      vertex -34.5581 26.6919 3
      vertex -34.5581 26.6919 0
    endloop
  endfacet
  facet normal 0.19505 0.980793 -0
    outer loop
      vertex -33.25 26.15 0
      vertex -33.958 26.2908 3
      vertex -33.25 26.15 3
    endloop
  endfacet
  facet normal 0.19505 0.980793 0
    outer loop
      vertex -33.958 26.2908 3
      vertex -33.25 26.15 0
      vertex -33.958 26.2908 0
    endloop
  endfacet
  facet normal 0.555691 0.831389 -0
    outer loop
      vertex -33.958 26.2908 0
      vertex -34.5581 26.6919 3
      vertex -33.958 26.2908 3
    endloop
  endfacet
  facet normal 0.555691 0.831389 0
    outer loop
      vertex -34.5581 26.6919 3
      vertex -33.958 26.2908 0
      vertex -34.5581 26.6919 0
    endloop
  endfacet
  facet normal 0.980793 -0.19505 0
    outer loop
      vertex -35.1 28 3
      vertex -34.9592 28.708 0
      vertex -34.9592 28.708 3
    endloop
  endfacet
  facet normal 0.980793 -0.19505 0
    outer loop
      vertex -34.9592 28.708 0
      vertex -35.1 28 3
      vertex -35.1 28 0
    endloop
  endfacet
  facet normal -0.980793 -0.19505 0
    outer loop
      vertex 35.1 28 0
      vertex 34.9592 28.708 3
      vertex 34.9592 28.708 0
    endloop
  endfacet
  facet normal -0.980793 -0.19505 0
    outer loop
      vertex 34.9592 28.708 3
      vertex 35.1 28 0
      vertex 35.1 28 3
    endloop
  endfacet
  facet normal -0.19505 -0.980793 0
    outer loop
      vertex 33.25 29.85 0
      vertex 33.958 29.7092 3
      vertex 33.25 29.85 3
    endloop
  endfacet
  facet normal -0.19505 -0.980793 -0
    outer loop
      vertex 33.958 29.7092 3
      vertex 33.25 29.85 0
      vertex 33.958 29.7092 0
    endloop
  endfacet
  facet normal 0.980793 0.19505 0
    outer loop
      vertex 31.5408 27.292 3
      vertex 31.4 28 0
      vertex 31.4 28 3
    endloop
  endfacet
  facet normal 0.980793 0.19505 0
    outer loop
      vertex 31.4 28 0
      vertex 31.5408 27.292 3
      vertex 31.5408 27.292 0
    endloop
  endfacet
  facet normal -0.19505 0.980793 0
    outer loop
      vertex 33.958 26.2908 0
      vertex 33.25 26.15 3
      vertex 33.958 26.2908 3
    endloop
  endfacet
  facet normal -0.19505 0.980793 0
    outer loop
      vertex 33.25 26.15 3
      vertex 33.958 26.2908 0
      vertex 33.25 26.15 0
    endloop
  endfacet
  facet normal -0.555691 -0.831389 0
    outer loop
      vertex 33.958 29.7092 0
      vertex 34.5581 29.3081 3
      vertex 33.958 29.7092 3
    endloop
  endfacet
  facet normal -0.555691 -0.831389 -0
    outer loop
      vertex 34.5581 29.3081 3
      vertex 33.958 29.7092 0
      vertex 34.5581 29.3081 0
    endloop
  endfacet
  facet normal -0.831389 -0.555691 0
    outer loop
      vertex 34.9592 28.708 0
      vertex 34.5581 29.3081 3
      vertex 34.5581 29.3081 0
    endloop
  endfacet
  facet normal -0.831389 -0.555691 0
    outer loop
      vertex 34.5581 29.3081 3
      vertex 34.9592 28.708 0
      vertex 34.9592 28.708 3
    endloop
  endfacet
  facet normal 0.19505 -0.980793 0
    outer loop
      vertex 32.542 29.7092 0
      vertex 33.25 29.85 3
      vertex 32.542 29.7092 3
    endloop
  endfacet
  facet normal 0.19505 -0.980793 0
    outer loop
      vertex 33.25 29.85 3
      vertex 32.542 29.7092 0
      vertex 33.25 29.85 0
    endloop
  endfacet
  facet normal 0.555691 -0.831389 0
    outer loop
      vertex 31.9419 29.3081 0
      vertex 32.542 29.7092 3
      vertex 31.9419 29.3081 3
    endloop
  endfacet
  facet normal 0.555691 -0.831389 0
    outer loop
      vertex 32.542 29.7092 3
      vertex 31.9419 29.3081 0
      vertex 32.542 29.7092 0
    endloop
  endfacet
  facet normal 0.831389 -0.555691 0
    outer loop
      vertex 31.5408 28.708 3
      vertex 31.9419 29.3081 0
      vertex 31.9419 29.3081 3
    endloop
  endfacet
  facet normal 0.831389 -0.555691 0
    outer loop
      vertex 31.9419 29.3081 0
      vertex 31.5408 28.708 3
      vertex 31.5408 28.708 0
    endloop
  endfacet
  facet normal -0.980793 0.19505 0
    outer loop
      vertex 34.9592 27.292 0
      vertex 35.1 28 3
      vertex 35.1 28 0
    endloop
  endfacet
  facet normal -0.980793 0.19505 0
    outer loop
      vertex 35.1 28 3
      vertex 34.9592 27.292 0
      vertex 34.9592 27.292 3
    endloop
  endfacet
  facet normal -0.555691 0.831389 0
    outer loop
      vertex 34.5581 26.6919 0
      vertex 33.958 26.2908 3
      vertex 34.5581 26.6919 3
    endloop
  endfacet
  facet normal -0.555691 0.831389 0
    outer loop
      vertex 33.958 26.2908 3
      vertex 34.5581 26.6919 0
      vertex 33.958 26.2908 0
    endloop
  endfacet
  facet normal -0.831389 0.555691 0
    outer loop
      vertex 34.5581 26.6919 0
      vertex 34.9592 27.292 3
      vertex 34.9592 27.292 0
    endloop
  endfacet
  facet normal -0.831389 0.555691 0
    outer loop
      vertex 34.9592 27.292 3
      vertex 34.5581 26.6919 0
      vertex 34.5581 26.6919 3
    endloop
  endfacet
  facet normal 0.831389 0.555691 0
    outer loop
      vertex 31.9419 26.6919 3
      vertex 31.5408 27.292 0
      vertex 31.5408 27.292 3
    endloop
  endfacet
  facet normal 0.831389 0.555691 0
    outer loop
      vertex 31.5408 27.292 0
      vertex 31.9419 26.6919 3
      vertex 31.9419 26.6919 0
    endloop
  endfacet
  facet normal 0.19505 0.980793 -0
    outer loop
      vertex 33.25 26.15 0
      vertex 32.542 26.2908 3
      vertex 33.25 26.15 3
    endloop
  endfacet
  facet normal 0.19505 0.980793 0
    outer loop
      vertex 32.542 26.2908 3
      vertex 33.25 26.15 0
      vertex 32.542 26.2908 0
    endloop
  endfacet
  facet normal 0.555691 0.831389 -0
    outer loop
      vertex 32.542 26.2908 0
      vertex 31.9419 26.6919 3
      vertex 32.542 26.2908 3
    endloop
  endfacet
  facet normal 0.555691 0.831389 0
    outer loop
      vertex 31.9419 26.6919 3
      vertex 32.542 26.2908 0
      vertex 31.9419 26.6919 0
    endloop
  endfacet
  facet normal 0.980793 -0.19505 0
    outer loop
      vertex 31.4 28 3
      vertex 31.5408 28.708 0
      vertex 31.5408 28.708 3
    endloop
  endfacet
  facet normal 0.980793 -0.19505 0
    outer loop
      vertex 31.5408 28.708 0
      vertex 31.4 28 3
      vertex 31.4 28 0
    endloop
  endfacet
endsolid OpenSCAD_Model
